<svg xmlns="http://www.w3.org/2000/svg" width="66" height="14" viewBox="0 0 66 14" fill="none">
  <path d="M13.9786 14C13.9786 14 14.0415 12.0159 14.0415 9.50552C14.0415 9.10483 14.0657 7.76276 13.8817 6.29034C13.8817 6.28069 13.8236 5.86552 13.8236 5.86552C13.2813 2.53931 10.4149 0 6.95781 0C3.11334 0 0 3.1331 0 7C0 10.8669 3.11334 14 6.95781 14C8.14891 14 9.26739 13.7007 10.2455 13.1697L7.2919 7.3331L13.9786 14Z" fill="#BFC0C4"/>
  <path d="M29.0875 0.241211C26.0611 0.241211 23.243 1.10535 20.8558 2.6019V0.241211H15.5294V13.7585H20.8558V11.3978C23.243 12.8943 26.0611 13.7585 29.0875 13.7585V7.34259H22.3085L29.0875 5.41156V0.241211Z" fill="#BFC0C4"/>
  <path d="M35.9118 0.241211H30.5736V13.7585H35.9118V0.241211Z" fill="#BFC0C4"/>
  <path d="M50.9559 0.241211C47.9228 0.241211 45.0984 1.115 42.7059 2.61156V0.241211H37.3677V13.7585H44.1618V11.3978H50.9559V7.34259H44.1618L50.9559 5.41156V0.241211Z" fill="#BFC0C4"/>
  <path d="M60.9529 0.241211L58.3226 5.60466L59.0117 0.241211H52.4117C52.4117 2.84811 53.1591 5.27638 54.4451 7.33776H52.4117V13.7585C54.8867 13.7585 57.2064 13.0971 59.2059 11.9433C63.3551 9.59707 66.0339 4.98673 66 0.241211H60.9529Z" fill="#BFC0C4"/>
</svg>