<svg width="24" height="24" viewBox="0 0 24 24" fill="none" xmlns="http://www.w3.org/2000/svg">
<path d="M18.9131 14.2499C18.9131 11.1149 18.9473 7.84495 18.9473 4.70995C18.9473 3.76495 18.1823 2.99995 17.2373 2.99995C15.9365 2.99995 15.3799 4.08393 15.4443 5.53705L14.6768 2.79488C14.4893 2.1562 13.6866 1.37102 12.5792 1.623C11.6717 1.8705 11.1146 2.80566 11.3546 3.72066L11.9229 5.99995L9.79596 2.58394C9.32346 1.76644 8.15267 1.49376 7.22955 2.0273C6.41205 2.4998 6.12799 3.74995 6.62018 4.57613L9.4151 9.1523C7.29987 9.85542 5.73551 11.3434 5.12604 13.0781C4.73411 14.1936 5.69072 15.5286 6.8537 15.5286C8.30369 15.5286 8.55688 14.1481 9.43269 13.3945C9.95019 12.9445 10.6707 12.6806 11.4132 12.7031C12.8682 12.7556 14.123 13.92 14.1905 15.3825C14.2655 17.0025 12.9521 18.457 11.3546 18.457C10.2296 18.457 8.93167 17.6349 8.53612 16.5878C8.28299 15.9178 7.48957 15.5273 6.77246 15.5273C5.62496 15.5273 4.76855 16.7109 5.10847 17.8828C6.02347 20.6203 8.64181 22.3903 11.6943 22.3828C15.4368 22.3603 18.9131 19.0195 18.9131 14.2499Z" fill="#FFC83D"/>
<path d="M12.3048 1.72375C11.5639 2.06805 11.1411 2.90242 11.3557 3.72068L11.8832 5.83618L13.1252 7.87496L12.1174 3.43356C12.0107 3.00312 11.929 2.15027 12.3048 1.72375Z" fill="#D67D00"/>
<path d="M6.92464 2.26296C6.34982 2.8353 6.19677 3.86347 6.62134 4.57615L9.41269 9.14647C10.1161 8.94139 10.8774 8.94139 11.7307 8.94139C10.9456 8.7656 10.0555 8.53544 9.52831 7.87496C9.00111 7.21449 7.18387 4.06637 7.18387 4.06637C6.91209 3.6571 6.56388 2.82801 6.92464 2.26296Z" fill="#D67D00"/>
<path d="M15.4412 5.39717C15.4224 4.28613 15.7818 3.41239 16.5772 3.1123C16.2748 3.48464 16.1904 4.11546 16.1956 4.49998L16.0549 7.87496L15.4412 5.39717Z" fill="#D67D00"/>
</svg>
