<svg width="28" height="28" viewBox="0 0 28 28" fill="none" xmlns="http://www.w3.org/2000/svg">
<path d="M21.5406 15.75H25.3993C25.8806 15.75 26.2743 16.1438 26.2743 16.625V17.5C26.2743 22.75 21.7856 26.25 17.5331 26.25C17.0431 26.25 16.6493 25.8562 16.6493 25.375V23.7213C16.6493 23.1875 16.2118 22.75 15.6781 22.75H12.0643C7.34807 22.75 3.52432 18.9262 3.52432 14.21V11.2011L2.84118 10.0345L3.54877 8.74625C3.7681 6.77933 5.43636 5.25 7.46182 5.25C8.33279 5.25 9.13771 5.53279 9.78977 6.01156L10.1306 5.31992C11.3643 2.81742 14.0506 1.43492 16.7631 1.81117C17.2093 1.87242 17.5331 2.25742 17.5331 2.70367L17.532 4.33109L18.3818 3.49125C19.5106 2.37125 21.0331 1.75 22.6168 1.75H24.3143C24.9093 1.75 25.3993 2.23125 25.3993 2.835V6.1425C25.3993 9.75625 23.9906 13.1862 21.5406 15.75Z" fill="#9B9B9B"/>
<path d="M20.9079 15.1455L19.4941 16.625H25.3993V17.5C25.3993 22.2046 21.3669 25.375 17.533 25.375C17.5305 25.375 17.5285 25.3746 17.5285 25.3746L17.527 25.3742L17.5243 25.3724V23.7213C17.5243 22.7043 16.695 21.875 15.678 21.875H12.0643C7.83129 21.875 4.39929 18.443 4.39929 14.21V10.0706L4.42279 8.80553C4.61023 7.29482 5.89999 6.125 7.46179 6.125C8.6071 6.125 9.60681 6.75331 10.133 7.68823L10.1474 7.71387L10.991 9.00196L10.997 9.0109C11.616 9.93095 12.9417 10.1049 13.7571 9.29213L13.7593 9.28997L18.9969 4.1136L18.9981 4.11237C19.9617 3.15621 21.2622 2.625 22.6168 2.625H24.3143C24.4306 2.625 24.5243 2.71909 24.5243 2.835V6.1425C24.5243 9.52778 23.2046 12.7421 20.9079 15.1455Z" fill="white"/>
<path d="M2.22054 7C1.97554 7 1.78304 7.1925 1.78304 7.4375L1.77429 13.3175C1.77429 14.2887 2.29054 15.1987 3.13054 15.6888L4.45002 16.4519L3.83929 16.8612C3.09554 17.3512 2.64929 18.1912 2.64929 19.0924V20.6237C2.64929 20.9212 2.98179 21.0962 3.22679 20.9299L4.07554 20.3612C4.81929 19.8712 5.27429 19.0312 5.27429 18.1299V16.9287L7.11218 17.9917C7.08331 18.1148 7.06803 18.2431 7.06803 18.375C7.06803 19.298 7.81628 20.0462 8.73928 20.0462C8.89018 20.0462 9.03641 20.0262 9.17545 19.9887L9.17681 19.9938L10.3668 19.67C10.6031 19.6 10.7431 19.3638 10.6818 19.1275L10.3581 17.9375L10.3531 17.9389C10.1612 17.2273 9.51141 16.7037 8.73928 16.7037C8.26317 16.7037 7.83356 16.9028 7.52916 17.2223L3.57679 14.9362C3.54353 14.9168 3.51099 14.8964 3.47919 14.875H4.54804C5.44929 14.875 6.28929 14.4288 6.78804 13.6762L7.35679 12.8275C7.52304 12.5825 7.33929 12.25 7.04179 12.25H5.51054C4.60929 12.25 3.76929 12.6962 3.27929 13.4488L2.83032 14.1188C2.71338 13.8718 2.64929 13.5986 2.64929 13.3175L2.65804 7.4375C2.65804 7.1925 2.45679 7 2.22054 7Z" fill="#44911B"/>
<path d="M7.02429 10.5C7.50754 10.5 7.89929 10.1082 7.89929 9.625C7.89929 9.14175 7.50754 8.75 7.02429 8.75C6.54104 8.75 6.14929 9.14175 6.14929 9.625C6.14929 10.1082 6.54104 10.5 7.02429 10.5Z" fill="#212121"/>
<path d="M3.54946 8.74023L1.93182 9.72143C1.73057 9.84393 1.73057 10.1327 1.93182 10.2552L3.52431 11.2073V9.18772C3.52431 9.03641 3.53285 8.8871 3.54946 8.74023Z" fill="#F9C23C"/>
</svg>
