<svg width="24" height="24" viewBox="0 0 24 24" fill="none" xmlns="http://www.w3.org/2000/svg">
<path d="M11.9992 22.4983C19 22.4983 22.4983 17.7977 22.4983 11.9992C22.4983 6.20064 19 1.5 11.9992 1.5C4.99833 1.5 1.5 6.20064 1.5 11.9992C1.5 17.7977 4.99833 22.4983 11.9992 22.4983Z" fill="#FFB02E"/>
<path d="M7.875 6.00012C9.73896 6.00012 11.25 7.51116 11.25 9.37512C11.2499 11.239 9.73892 12.7501 7.875 12.7501C6.01108 12.7501 4.50007 11.239 4.5 9.37512C4.5 7.51116 6.01104 6.00012 7.875 6.00012ZM16.0908 5.21887C18.147 5.2189 19.8135 6.88637 19.8135 8.9425C19.8134 10.9986 18.1469 12.6651 16.0908 12.6652C14.0347 12.6652 12.3683 10.9986 12.3682 8.9425C12.3682 6.88635 14.0347 5.21887 16.0908 5.21887Z" fill="white"/>
<path d="M14.0831 3.68702C14.2476 3.57731 14.5608 3.40238 14.9387 3.2559C15.3186 3.10867 15.7388 3 16.125 3C16.5112 3 16.9315 3.10867 17.3114 3.2559C17.6893 3.40238 18.0025 3.57731 18.167 3.68702C18.3393 3.8019 18.5722 3.75534 18.6871 3.58301C18.8019 3.41069 18.7554 3.17786 18.5831 3.06298C18.3726 2.92269 18.0108 2.72262 17.5824 2.5566C17.1561 2.39134 16.6388 2.25 16.125 2.25C15.6112 2.25 15.094 2.39134 14.6676 2.5566C14.2393 2.72262 13.8775 2.92269 13.667 3.06298C13.4947 3.17786 13.4481 3.41069 13.563 3.58301C13.6779 3.75534 13.9107 3.8019 14.0831 3.68702Z" fill="#402A32"/>
<path d="M5.93706 5.08301C6.13736 4.78256 6.83242 4.125 7.87504 4.125C8.91766 4.125 9.61272 4.78256 9.81302 5.08301C9.9279 5.25534 10.1607 5.3019 10.3331 5.18702C10.5054 5.07214 10.5519 4.83931 10.4371 4.66699C10.1374 4.21744 9.23242 3.375 7.87504 3.375C6.51766 3.375 5.61272 4.21744 5.31302 4.66699C5.19814 4.83931 5.2447 5.07214 5.41703 5.18702C5.58935 5.3019 5.82218 5.25534 5.93706 5.08301Z" fill="#402A32"/>
<path d="M10.2803 15.1553C10.3281 15.1075 10.6236 14.8125 11.25 14.8125C12.4506 14.8125 13.3242 15.5755 13.5792 16.0854C13.7644 16.4559 14.2149 16.6061 14.5854 16.4208C14.9559 16.2356 15.1061 15.7851 14.9208 15.4146C14.4258 14.4245 13.0494 13.3125 11.25 13.3125C10.0764 13.3125 9.42188 13.8925 9.21967 14.0947C8.92678 14.3876 8.92678 14.8624 9.21967 15.1553C9.51256 15.4482 9.98744 15.4482 10.2803 15.1553Z" fill="#402A32"/>
<path d="M14.25 8.625C14.25 7.79637 14.9214 7.125 15.75 7.125C16.5786 7.125 17.25 7.79637 17.25 8.625C17.25 9.45363 16.5786 10.125 15.75 10.125C14.9214 10.125 14.25 9.45363 14.25 8.625Z" fill="#402A32"/>
<path d="M6.375 8.625C6.375 8.00353 6.87853 7.5 7.5 7.5C8.12147 7.5 8.625 8.00353 8.625 8.625C8.625 9.24647 8.12147 9.75 7.5 9.75C6.87853 9.75 6.375 9.24647 6.375 8.625Z" fill="#402A32"/>
<rect x="19.6875" y="7.875" width="1.5" height="12" rx="0.75" fill="#402A32"/>
<path fill-rule="evenodd" clip-rule="evenodd" d="M20.2397 9.82266C19.8344 11.7417 18.1311 13.1821 16.0914 13.1821C13.7498 13.1821 11.8516 11.2838 11.8516 8.94224C11.8516 6.60064 13.7498 4.70239 16.0914 4.70239C18.1311 4.70239 19.8344 6.14274 20.2397 8.06181C20.6536 8.14116 20.9664 8.50517 20.9664 8.94224C20.9664 9.3793 20.6536 9.74331 20.2397 9.82266ZM19.4313 8.94224C19.4313 10.7868 17.936 12.2821 16.0914 12.2821C14.2469 12.2821 12.7516 10.7868 12.7516 8.94224C12.7516 7.09769 14.2469 5.60239 16.0914 5.60239C17.936 5.60239 19.4313 7.09769 19.4313 8.94224Z" fill="#402A32"/>
</svg>
