<svg width="24" height="24" viewBox="0 0 24 24" fill="none" xmlns="http://www.w3.org/2000/svg">
<path d="M18.659 2.15901C19.5377 1.28033 20.9623 1.28033 21.841 2.15901C22.7197 3.03769 22.7197 4.46231 21.841 5.34099L15.2704 11.9116C15.2216 11.9604 15.2216 12.0396 15.2704 12.0884L21.841 18.659C22.7197 19.5377 22.7197 20.9623 21.841 21.841C20.9623 22.7197 19.5377 22.7197 18.659 21.841L12.0884 15.2704C12.0396 15.2216 11.9604 15.2216 11.9116 15.2704L5.34099 21.841C4.46231 22.7197 3.03769 22.7197 2.15901 21.841C1.28033 20.9623 1.28033 19.5377 2.15901 18.659L8.72963 12.0884C8.77845 12.0396 8.77845 11.9604 8.72963 11.9116L2.15901 5.34099C1.28033 4.46231 1.28033 3.03769 2.15901 2.15901C3.03769 1.28033 4.46231 1.28033 5.34099 2.15901L11.9116 8.72963C11.9604 8.77845 12.0396 8.77845 12.0884 8.72963L18.659 2.15901Z" fill="#F92F60"/>
</svg>
