<svg width="24" height="24" viewBox="0 0 24 24" fill="none" xmlns="http://www.w3.org/2000/svg">
<path d="M6 3C6 2.17157 6.67157 1.5 7.5 1.5H16.5C17.3284 1.5 18 2.17157 18 3V21C18 21.8284 17.3284 22.5 16.5 22.5H7.5C6.67157 22.5 6 21.8284 6 21V3Z" fill="#E19747"/>
<path d="M7.5 3.75C7.5 3.33579 7.83579 3 8.25 3H15.75C16.1642 3 16.5 3.33579 16.5 3.75V9C16.5 9.41421 16.1642 9.75 15.75 9.75H8.25C7.83579 9.75 7.5 9.41421 7.5 9V3.75Z" fill="#D3883E"/>
<path d="M7.5 12.75C7.5 12.3358 7.83579 12 8.25 12H15.75C16.1642 12 16.5 12.3358 16.5 12.75V15C16.5 15.4142 16.1642 15.75 15.75 15.75H8.25C7.83579 15.75 7.5 15.4142 7.5 15V12.75Z" fill="#D3883E"/>
<path d="M8.25 17.25C7.83579 17.25 7.5 17.5858 7.5 18V20.25C7.5 20.6642 7.83579 21 8.25 21H15.75C16.1642 21 16.5 20.6642 16.5 20.25V18C16.5 17.5858 16.1642 17.25 15.75 17.25H8.25Z" fill="#D3883E"/>
<path d="M17.4375 10.875C17.4375 11.2892 17.1017 11.625 16.6875 11.625C16.2733 11.625 15.9375 11.2892 15.9375 10.875C15.9375 10.4608 16.2733 10.125 16.6875 10.125C17.1017 10.125 17.4375 10.4608 17.4375 10.875Z" fill="#F9C23C"/>
</svg>
