<svg width="24" height="24" viewBox="0 0 24 24" fill="none" xmlns="http://www.w3.org/2000/svg">
<path d="M19.9397 1.5422C20.2022 1.4297 20.5022 1.5497 20.6147 1.8122C20.6672 1.9322 20.6672 2.0597 20.6222 2.1722C20.5922 2.2772 20.5847 2.3822 20.6297 2.4797L20.8922 3.0572L20.4047 3.2672L20.1497 2.6822C20.1047 2.5847 20.0222 2.5172 19.9247 2.4722C19.8122 2.4197 19.7222 2.3372 19.6697 2.2172C19.5572 1.9547 19.6772 1.6547 19.9397 1.5422ZM19.4298 2.35218C19.3173 2.08968 19.0173 1.96968 18.7548 2.08218C18.4923 2.19468 18.3723 2.49468 18.4848 2.75718C18.5373 2.87718 18.6273 2.95968 18.7398 3.01218C18.8373 3.05718 18.9198 3.12468 18.9648 3.22218L19.2198 3.80718L19.7073 3.59718L19.4523 3.01218C19.4073 2.91468 19.4148 2.80968 19.4448 2.70468C19.4748 2.59968 19.4748 2.47218 19.4298 2.35218ZM18.2372 2.89216C18.1247 2.62966 17.8247 2.50966 17.5622 2.62216C17.2997 2.73466 17.1797 3.03466 17.2922 3.29716C17.3447 3.41716 17.4347 3.49966 17.5472 3.55216C17.6447 3.59716 17.7272 3.66466 17.7722 3.76216L18.0272 4.34716L18.5147 4.13716L18.2597 3.55216C18.2147 3.45466 18.2147 3.34966 18.2522 3.24466C18.2897 3.13216 18.2897 3.01216 18.2372 2.89216Z" fill="#D3D3D3"/>
<path d="M12.394 17.3072C12.484 16.2797 13.2415 15.4322 14.2615 15.2297C14.674 15.1472 15.079 15.0047 15.469 14.8097C16.039 14.5247 16.2715 13.8272 15.9865 13.2572C15.7015 12.6872 15.004 12.4547 14.434 12.7397C13.4665 13.2272 12.2965 13.0397 11.524 12.2672C10.549 11.2922 10.5415 9.70215 11.509 8.71965C11.959 8.26215 11.9815 7.52715 11.5315 7.06965C11.0815 6.61215 10.339 6.61215 9.88899 7.06215C9.19149 7.75965 8.74899 8.62215 8.56899 9.52965C8.36649 10.5497 7.50399 11.2922 6.46899 11.3897C5.22399 11.5022 4.01649 12.0347 3.07149 12.9872C0.948991 15.1322 0.978991 18.6647 3.14649 20.7647C5.28399 22.8422 8.70399 22.8197 10.819 20.7047C11.7565 19.7597 12.289 18.5447 12.394 17.3072Z" fill="#CA0B4A"/>
<path d="M11.5398 13.5347C11.3073 13.4522 11.0898 13.3172 10.9023 13.1297C10.7898 13.0172 10.6923 12.8897 10.6098 12.7547C10.4823 12.5447 10.3998 12.3122 10.3698 12.0797C10.3248 11.7872 10.1523 11.5397 9.90478 11.3972C9.79978 11.3372 9.67978 11.2997 9.55978 11.2847C9.20728 11.2472 8.86228 11.4122 8.67478 11.7197C8.44228 12.1022 8.02228 12.3497 7.53478 12.3722C6.71728 12.4022 5.93728 12.7097 5.34478 13.3097C5.33728 13.3172 5.33728 13.3172 5.32978 13.3247C4.58728 14.0897 4.60228 15.3122 5.35228 16.0622L7.03978 17.7497C7.74478 18.4547 7.20478 19.4072 7.19728 20.0747C7.19728 20.1947 7.21978 20.3222 7.26478 20.4347C7.46728 20.9597 8.07478 21.2072 8.59978 20.9972C9.16228 20.7722 9.67228 20.4422 10.1073 19.9997C10.4898 19.6172 10.7898 19.1822 11.0148 18.7022C11.2248 18.2372 11.3148 17.7347 11.4048 17.2247C11.5248 16.5572 11.8548 15.9422 12.3948 15.4322C12.7998 14.9897 13.2348 14.7422 13.8498 14.5997C13.9773 14.5697 14.2548 14.4647 14.3673 14.3897C14.5623 14.2622 14.6073 14.1047 14.5548 13.9697C14.3973 13.5197 14.0148 13.6547 13.7223 13.7072C13.2198 13.8047 12.7923 13.7522 12.6573 13.7372C12.6198 13.7297 12.5898 13.7297 12.5523 13.7222C12.3648 13.6922 11.7948 13.6247 11.5398 13.5347Z" fill="#F4F4F4"/>
<path d="M7.02414 18.5747L5.21664 16.7672C5.14164 16.6922 5.02164 16.6922 4.94664 16.7672L4.14414 17.5547C4.06914 17.6297 4.06914 17.7497 4.14414 17.8247L5.95164 19.6322C6.02664 19.7072 6.14664 19.7072 6.22164 19.6322L7.01664 18.8372C7.09914 18.7697 7.09914 18.6497 7.02414 18.5747Z" fill="#9B9B9B"/>
<path d="M9.15329 13.4747L10.3008 14.6222C10.4808 14.8022 10.4808 15.0872 10.3008 15.2597C10.1208 15.4322 9.83579 15.4322 9.66329 15.2597L8.51579 14.1122C8.34329 13.9322 8.34329 13.6472 8.51579 13.4747C8.69579 13.3022 8.98079 13.3022 9.15329 13.4747ZM7.64578 14.9896L8.79328 16.1371C8.96578 16.3096 8.96578 16.5946 8.79328 16.7746C8.61328 16.9471 8.32828 16.9471 8.15578 16.7746L7.00828 15.6271C6.83578 15.4471 6.83578 15.1621 7.00828 14.9896C7.18828 14.8171 7.47328 14.8171 7.64578 14.9896Z" fill="#D3D3D3"/>
<path d="M18.7919 6.40219L18.3754 5.25L17.3819 4.99219L10.2344 12.1397C10.0469 12.3272 10.0469 12.6272 10.2344 12.8072L10.9769 13.5497C11.1644 13.7372 11.4644 13.7372 11.6444 13.5497L18.7919 6.40219Z" fill="#635994"/>
<path d="M19.6459 6.30473L20.4559 4.94723C20.5459 4.79723 20.7259 4.72973 20.8909 4.79723C21.3184 4.96223 21.8209 4.87223 22.1509 4.51223C22.5559 4.07723 22.5634 3.39473 22.1659 2.95973C21.7759 2.53223 21.2209 2.52473 20.6884 2.76473L17.6134 4.18223C17.2759 4.36973 17.2159 4.82723 17.4859 5.10473L18.7609 6.37973C19.0159 6.62723 19.4359 6.59723 19.6459 6.30473Z" fill="#CA0B4A"/>
</svg>
