<svg width="24" height="24" viewBox="0 0 24 24" fill="none" xmlns="http://www.w3.org/2000/svg">
<path d="M16.1245 3.51562C16.1245 2.34375 17.3204 1.5 18.3745 1.5C19.5698 1.5 20.2495 2.36719 20.2495 3.51562L20.2319 15.1699C20.2319 19.1484 17.0854 22.5 12.6257 22.5C8.2729 22.5 5.00195 19.365 5.00195 15.5025V11.0736C5.00195 10.0294 5.89741 9.1875 7.00812 9.1875H7.01673C7.71569 9.1875 8.3294 9.52088 8.68837 10.0283C8.76271 9.03176 9.60906 8.25 10.6476 8.25H10.656C11.5004 8.25 12.2177 8.76677 12.4964 9.49558C12.5715 8.45086 13.528 7.73438 14.4913 7.73438H14.4999C15.1702 7.73438 15.762 8.09145 16.1245 8.57743V3.51562Z" fill="#FFC83D"/>
<path d="M16.125 3.51563V8.57227C16.4473 9.01172 16.4473 10.3887 16.4473 10.8867C16.6544 10.8867 16.875 10.7188 16.875 10.5117V3.09375C16.875 2.70524 17.0893 2.31996 17.4048 2.00913C17.5593 1.85687 17.7282 1.73293 17.8852 1.6457C18.0474 1.55557 18.1744 1.51694 18.2467 1.51001L18.2463 1.50557C18.1924 1.50188 18.1376 1.5 18.082 1.5C17.0279 1.5 16.125 2.34375 16.125 3.51563Z" fill="#D67D00"/>
<path d="M13.2539 11.9083V9.58594C13.2539 9.05317 13.4896 8.61457 13.7902 8.28906C14.1014 7.95202 14.4418 7.77877 14.5768 7.74903L14.5739 7.73581C14.5495 7.73486 14.525 7.73438 14.5004 7.73438H14.4918C13.5814 7.73438 12.677 8.3744 12.5171 9.32666C12.5085 9.41099 12.5039 9.49743 12.5039 9.58594V12.9652C12.4506 13.1502 12.4219 13.3476 12.4219 13.5525C12.4219 13.7036 12.439 13.8509 12.4719 13.9923C12.1771 14.6882 11.4768 15.1758 10.6566 15.1758H10.6481C10.189 15.1758 9.76749 15.023 9.43359 14.7664V9.84492C9.43359 9.35868 9.66933 8.95839 9.96986 8.66131C10.166 8.46738 10.3739 8.33287 10.5345 8.25314C9.50005 8.31039 8.68359 9.14478 8.68359 10.1711V13.2547C8.68359 13.5616 8.75658 13.8512 8.88655 14.1081C8.86605 14.1293 8.84532 14.1501 8.82437 14.1704C8.5003 14.801 7.81419 15.2344 7.01727 15.2344H7.00866C6.29378 15.2344 5.66807 14.8856 5.31288 14.3587C5.20421 14.2695 5.10448 14.1706 5.01562 14.0625C5.55469 16.5352 8.29688 16.1211 9.14062 15.4336C9.67969 16.3242 11.6484 16.2422 12.1641 15.5391C12.1641 15.5391 12.3281 15.9492 12.8878 16.2324C11.7152 16.7781 10.68 17.5832 10.0121 18.6439C9.90173 18.8192 9.95435 19.0507 10.1296 19.1611C10.3049 19.2714 10.5364 19.2188 10.6468 19.0436C11.82 17.1801 14.3937 16.1441 16.6876 16.1253C17.1722 16.3945 17.641 16.8261 17.9766 17.5664C18.1519 17.9531 18.5961 18.0879 18.8438 17.9531C19.1232 17.8011 19.2086 17.3353 19.0781 16.9687C18.9386 16.5768 18.1374 15.6358 16.8811 15.3981C16.8407 15.3832 16.7969 15.375 16.7513 15.375C16.7483 15.375 16.7453 15.375 16.7423 15.375C16.4618 15.3348 16.1601 15.33 15.8393 15.3736C14.2322 15.3198 13.0723 14.5249 13.0723 13.5232C13.0723 12.5227 13.6689 11.8643 14.3161 11.6259C14.2656 11.6253 14.216 11.625 14.1671 11.625C13.8319 11.625 13.5193 11.7285 13.2539 11.9083Z" fill="#D67D00"/>
</svg>
