<svg width="24" height="24" viewBox="0 0 24 24" fill="none" xmlns="http://www.w3.org/2000/svg">
<path d="M1.5 4.5C1.5 2.84315 2.84315 1.5 4.5 1.5H19.5C21.1569 1.5 22.5 2.84315 22.5 4.5V19.5C22.5 21.1569 21.1569 22.5 19.5 22.5H4.5C2.84315 22.5 1.5 21.1569 1.5 19.5V4.5Z" fill="#00D26A"/>
<path d="M9.93149 17.25C9.64412 17.25 9.35674 17.1424 9.13723 16.9269L4.82892 12.6958C4.39036 12.2652 4.39036 11.5665 4.82892 11.1358C5.26747 10.7051 5.97889 10.7051 6.41745 11.1358L9.93149 14.5868L17.5826 7.07302C18.0211 6.64233 18.7325 6.64233 19.1711 7.07302C19.6096 7.5037 19.6096 8.20236 19.1711 8.63305L10.7258 16.9269C10.5067 17.1424 10.2189 17.25 9.93149 17.25Z" fill="#F4F4F4"/>
</svg>
