<svg width="24" height="24" viewBox="0 0 24 24" fill="none" xmlns="http://www.w3.org/2000/svg">
<path d="M22.5 5.90685V19.6146C22.5 21.2109 21.2095 22.5 19.6115 22.5H4.38853C2.79046 22.5 1.5 21.2109 1.5 19.6146V4.38544C1.5 2.78908 2.79046 1.5 4.38853 1.5H18.0809C18.7787 1.5 19.4464 1.7773 19.9416 2.26445L21.7347 4.04818C22.2224 4.54283 22.5 5.20985 22.5 5.90685Z" fill="#635994"/>
<path d="M4.5 13.5H19.5V22.5H4.5V13.5Z" fill="#E6E6E6"/>
<path d="M4.5 13.125C4.5 12.5037 5.00368 12 5.625 12H18.375C18.9963 12 19.5 12.5037 19.5 13.125V14.25H4.5V13.125Z" fill="#F8312F"/>
<path d="M18.0868 1.50001C18.5919 1.50114 19.0809 1.64752 19.5 1.91354V8.43757C19.5 9.16507 18.9075 9.75007 18.1875 9.75007H5.8125C5.085 9.75007 4.5 9.16507 4.5 8.43757V1.50007L18.0809 1.5C18.0829 1.5 18.0849 1.5 18.0868 1.50001Z" fill="#321B41"/>
<path d="M16.98 9H9.27C8.7075 9 8.25 8.5425 8.25 7.98V2.4525C8.25 1.9275 8.6775 1.5 9.2025 1.5H18V7.98C18 8.5425 17.5425 9 16.98 9Z" fill="#E6E6E6"/>
<path d="M16.5223 8.25H14.9777C14.5767 8.25 14.25 7.91917 14.25 7.51316L14.25 2.98684C14.25 2.58083 14.5767 2.25 14.9777 2.25H16.5223C16.9233 2.25 17.25 2.58083 17.25 2.98684V7.52067C17.25 7.91917 16.9233 8.25 16.5223 8.25Z" fill="#321B41"/>
</svg>
