<svg width="28" height="28" viewBox="0 0 28 28" fill="none" xmlns="http://www.w3.org/2000/svg">
<path d="M13.999 26.248C22.1667 26.248 26.248 20.764 26.248 13.999C26.248 7.23407 22.1667 1.75 13.999 1.75C5.83138 1.75 1.75 7.23407 1.75 13.999C1.75 20.764 5.83138 26.248 13.999 26.248Z" fill="#FFB02E"/>
<path d="M14 21.875C6.125 21.875 6.125 14 6.125 14H21.875C21.875 14 21.875 21.875 14 21.875Z" fill="#BB1D80"/>
<path d="M7 14.4375V14H21V14.4375C21 14.9207 20.6082 15.3125 20.125 15.3125H7.875C7.39175 15.3125 7 14.9207 7 14.4375Z" fill="white"/>
<path d="M9.1875 5.03125C11.2413 5.03125 12.9062 6.69619 12.9062 8.75C12.9062 10.8038 11.2413 12.4688 9.1875 12.4688C7.13369 12.4688 5.46875 10.8038 5.46875 8.75C5.46875 6.69619 7.13369 5.03125 9.1875 5.03125ZM18.8125 5.03125C20.8663 5.03125 22.5312 6.69619 22.5312 8.75C22.5312 10.8038 20.8663 12.4688 18.8125 12.4688C16.7587 12.4688 15.0938 10.8038 15.0938 8.75C15.0938 6.69619 16.7587 5.03125 18.8125 5.03125Z" fill="white"/>
<path d="M11.5938 8.75C11.5938 9.83731 10.7123 10.7188 9.625 10.7188C8.53769 10.7188 7.65625 9.83731 7.65625 8.75C7.65625 7.66269 8.53769 6.78125 9.625 6.78125C10.7123 6.78125 11.5938 7.66269 11.5938 8.75Z" fill="#402A32"/>
<path d="M20.3438 8.75C20.3438 9.83731 19.4623 10.7188 18.375 10.7188C17.2877 10.7188 16.4062 9.83731 16.4062 8.75C16.4062 7.66269 17.2877 6.78125 18.375 6.78125C19.4623 6.78125 20.3438 7.66269 20.3438 8.75Z" fill="#402A32"/>
</svg>
