<svg width="24" height="24" viewBox="0 0 24 24" fill="none" xmlns="http://www.w3.org/2000/svg">
<path d="M15.4448 5.43896C16.3569 7.45009 17.4761 9.91812 18.3164 10.8985C18.4804 10.5176 18.4629 9.87894 18.6504 8.32034C18.8197 6.9129 19.9804 6.77933 20.4785 6.87894C21.58 7.10862 21.9156 8.22517 21.8789 8.63675C21.8203 9.293 21.8174 9.27068 21.6972 10.8575C21.5215 13.1778 22.4179 14.9297 22.5 16.916C22.5 20.6602 19.2187 22.5 16.9218 22.5C15.0843 22.5 13.2461 21.3242 12.5566 20.7364L9.11129 17.5899C8.68942 17.2617 7.64673 16.1791 7.18935 15.5567C5.94248 13.8598 7.74606 12.6914 8.75967 12.9844C8.67998 12.9235 8.19916 12.1426 7.96871 11.7598C7.34996 10.5176 7.96871 9.69015 8.42575 9.46292C9.46286 8.9473 10.2246 9.52737 10.4648 9.84378C10.373 9.68753 10.0851 9.05628 9.62107 7.89847C9.15701 6.74066 9.90427 6.02542 10.3359 5.81253C11.2734 5.37894 12.164 5.92972 12.3867 6.42191C12.4957 6.66293 13.0838 7.95104 13.3399 8.51912C13.147 8.04809 12.7974 7.11223 12.6738 6.67972C12.4277 5.66019 13.0195 4.96098 13.3945 4.78129C13.9159 4.53146 15.0036 4.46602 15.4335 5.41411L15.4448 5.43896Z" fill="#FFC83D"/>
<path d="M13.3376 5.18645C13.4166 4.93092 13.5258 4.77698 13.608 4.69995C13.5302 4.72336 13.4586 4.75098 13.3953 4.78131C13.0203 4.961 12.4285 5.6602 12.6746 6.67974C12.7982 7.11225 13.1478 8.0481 13.3407 8.51914L13.2481 8.3141C13.6714 9.28509 14.1983 10.3311 14.5955 11.0065C14.7005 11.1851 14.9304 11.2447 15.1089 11.1397C15.2874 11.0347 15.347 10.8049 15.2421 10.6264C14.5974 9.53012 13.6159 7.45001 13.3353 6.41735C13.2077 5.94759 13.2363 5.51423 13.3376 5.18645Z" fill="#D67D00"/>
<path d="M7.96952 11.7598C8.14375 12.0492 8.4611 12.5662 8.64 12.8275C8.87703 13.1127 9.13667 13.3859 9.39925 13.6458C9.69877 13.9423 10.01 14.229 10.3048 14.5005L10.3297 14.5235C10.6342 14.8039 10.9187 15.0666 11.1657 15.3164C11.3112 15.4637 11.5487 15.4651 11.696 15.3195C11.8433 15.1739 11.8446 14.9365 11.6991 14.7892C11.4376 14.5246 11.1398 14.2499 10.8378 13.9718L10.8167 13.9523C10.5192 13.6783 10.2166 13.3997 9.92688 13.1128C9.32837 12.5204 8.81734 11.924 8.54549 11.3238C8.35306 10.899 8.30583 10.4019 8.35834 9.99092C8.38449 9.78623 8.43354 9.61797 8.4901 9.50007C8.50907 9.46053 8.52658 9.43123 8.54143 9.40974C8.50353 9.426 8.46523 9.4437 8.42655 9.46293C7.96951 9.69016 7.35077 10.5176 7.96952 11.7598Z" fill="#D67D00"/>
<path d="M10.4127 5.7795C10.3331 5.83355 10.223 5.96416 10.1535 6.21783C10.0751 6.5036 10.063 6.90541 10.1947 7.39C10.3854 8.09198 10.8635 9.03354 11.4106 9.95601C11.9529 10.8702 12.5437 11.7339 12.9363 12.2709C13.0586 12.4381 13.0221 12.6727 12.8549 12.7949C12.6878 12.9172 12.4531 12.8808 12.3309 12.7136C11.9266 12.1607 11.322 11.2768 10.7656 10.3386C10.6162 10.0869 10.4689 9.82882 10.3291 9.57036C10.1836 9.25767 9.94564 8.70621 9.6219 7.89849C9.15783 6.74067 9.9051 6.02544 10.3367 5.81255C10.3621 5.80082 10.3874 5.78981 10.4127 5.7795Z" fill="#D67D00"/>
<path d="M18.5076 9.70785C18.453 10.3037 18.4219 10.6438 18.3239 10.8827C18.3181 10.9574 18.3126 11.0257 18.307 11.0872C18.2883 11.2935 18.4403 11.4759 18.6466 11.4946C18.8528 11.5134 19.0352 11.3614 19.054 11.1551C19.0651 11.0322 19.0757 10.89 19.0876 10.7292C19.1316 10.1347 19.1944 9.2862 19.3782 8.22006C19.4546 7.77691 19.653 7.39322 19.8806 7.14317C20.0562 6.95039 20.208 6.87573 20.3123 6.85716C19.7598 6.81862 18.8037 7.05317 18.6512 8.32037C18.5817 8.89796 18.5404 9.34923 18.5076 9.70785Z" fill="#D67D00"/>
<path d="M18.0276 5.66754C18.0289 5.87465 18.1979 6.04144 18.405 6.04008C18.6121 6.03873 18.7789 5.86974 18.7776 5.66264C18.7663 3.94161 17.4579 1.54618 14.6458 1.56456C14.4387 1.56591 14.272 1.7349 14.2733 1.942C14.2747 2.1491 14.4436 2.3159 14.6507 2.31454C16.9245 2.29968 18.0182 4.22458 18.0276 5.66754Z" fill="#5092FF"/>
<path d="M17.1573 7.48968C16.9502 7.49104 16.7812 7.32425 16.7798 7.11714C16.7754 6.43532 16.4941 5.52701 15.897 4.79622C15.3093 4.07694 14.4215 3.53482 13.1822 3.54292C12.9751 3.54428 12.8061 3.37749 12.8047 3.17038C12.8034 2.96328 12.9702 2.79429 13.1773 2.79294C14.6683 2.7832 15.7631 3.4469 16.4778 4.32168C17.1831 5.18495 17.5242 6.25895 17.5298 7.11224C17.5312 7.31934 17.3644 7.48833 17.1573 7.48968Z" fill="#5092FF"/>
<path d="M3.65564 13.207C3.65564 12.9999 3.48775 12.832 3.28064 12.832C3.07353 12.832 2.90564 12.9999 2.90564 13.207C2.90564 14.0603 3.2397 15.1365 3.93938 16.0044C4.6484 16.8838 5.7388 17.5546 7.22986 17.5546C7.43697 17.5546 7.60486 17.3867 7.60486 17.1796C7.60486 16.9725 7.43697 16.8046 7.22986 16.8046C5.99045 16.8046 5.10624 16.2567 4.52326 15.5336C3.93095 14.7989 3.65564 13.8888 3.65564 13.207Z" fill="#5092FF"/>
<path d="M2.39844 14.6484C2.39844 14.4413 2.23054 14.2734 2.02344 14.2734C1.81633 14.2734 1.64844 14.4413 1.64844 14.6484C1.64844 16.3695 2.94115 18.7734 5.7533 18.7734C5.9604 18.7734 6.1283 18.6055 6.1283 18.3984C6.1283 18.1913 5.9604 18.0234 5.7533 18.0234C3.4795 18.0234 2.39844 16.0914 2.39844 14.6484Z" fill="#5092FF"/>
</svg>
