<svg width="24" height="24" viewBox="0 0 24 24" fill="none" xmlns="http://www.w3.org/2000/svg">
<rect x="0.75" y="3.75" width="22.5" height="16.5" rx="1.5" fill="#B4ACBC"/>
<rect x="1.5" y="5.25" width="21" height="13.5" rx="1" fill="#CDC4D6"/>
<path d="M22.5 17.5501L12.7717 11.7132C12.2967 11.4281 11.7033 11.4281 11.2283 11.7132L1.5 17.5501V18.5001C1.5 19.0524 1.94772 19.5001 2.5 19.5001L21.5 19.5001C22.0523 19.5001 22.5 19.0524 22.5 18.5001V17.5501Z" fill="#E1D8EC"/>
<path d="M1.5 7.32464V6H22.5V7.32464L13.1576 12.9301C12.4451 13.3576 11.5549 13.3576 10.8424 12.9301L1.5 7.32464Z" fill="#998EA4"/>
<path d="M1.5 6.45V5.5C1.5 4.94771 1.94772 4.5 2.5 4.5H21.5C22.0523 4.5 22.5 4.94772 22.5 5.5V6.45L12.7717 12.287C12.2967 12.572 11.7033 12.572 11.2283 12.287L1.5 6.45Z" fill="#F3EEF8"/>
</svg>
