<svg width="24" height="24" viewBox="0 0 24 24" fill="none" xmlns="http://www.w3.org/2000/svg">
<path d="M11.9992 22.4983C19 22.4983 22.4983 17.7977 22.4983 11.9992C22.4983 6.20064 19 1.5 11.9992 1.5C4.99833 1.5 1.5 6.20064 1.5 11.9992C1.5 17.7977 4.99833 22.4983 11.9992 22.4983Z" fill="#FFB02E"/>
<path d="M5.78033 12.2197C5.48744 11.9268 5.01256 11.9268 4.71967 12.2197C4.42678 12.5126 4.42678 12.9874 4.71967 13.2803C5.11317 13.6738 6.10516 14.25 7.5 14.25C8.89484 14.25 9.88683 13.6738 10.2803 13.2803C10.5732 12.9874 10.5732 12.5126 10.2803 12.2197C9.98744 11.9268 9.51256 11.9268 9.21967 12.2197C9.11317 12.3262 8.50516 12.75 7.5 12.75C6.49484 12.75 5.88683 12.3262 5.78033 12.2197Z" fill="#402A32"/>
<path d="M14.7803 12.2197C14.4874 11.9268 14.0126 11.9268 13.7197 12.2197C13.4268 12.5126 13.4268 12.9874 13.7197 13.2803C14.1132 13.6738 15.1052 14.25 16.5 14.25C17.8948 14.25 18.8868 13.6738 19.2803 13.2803C19.5732 12.9874 19.5732 12.5126 19.2803 12.2197C18.9874 11.9268 18.5126 11.9268 18.2197 12.2197C18.1132 12.3262 17.5052 12.75 16.5 12.75C15.4948 12.75 14.8868 12.3262 14.7803 12.2197Z" fill="#402A32"/>
<path d="M10.5 18C10.5 17.1716 11.1716 16.5 12 16.5C12.8284 16.5 13.5 17.1716 13.5 18C13.5 18.8284 12.8284 19.5 12 19.5C11.1716 19.5 10.5 18.8284 10.5 18Z" fill="#BB1D80"/>
<path d="M21.585 1.78073C21.7683 2.00921 21.8018 2.32346 21.6708 2.58544L20.1501 5.62693L21.5681 5.27242C21.9699 5.17196 22.3771 5.41628 22.4776 5.81813C22.5781 6.21997 22.3337 6.62717 21.9319 6.72764L18.9319 7.47764C18.6477 7.54867 18.3482 7.4478 18.165 7.21933C17.9817 6.99085 17.9482 6.67659 18.0792 6.41462L19.5999 3.37313L18.1819 3.72764C17.78 3.8281 17.3728 3.58378 17.2724 3.18193C17.1719 2.78009 17.4162 2.37288 17.8181 2.27242L20.8181 1.52242C21.1022 1.45138 21.4018 1.55226 21.585 1.78073Z" fill="#00A6ED"/>
<path d="M14.25 4.87505C14.25 4.66794 14.4179 4.50005 14.625 4.50005H16.875C17.017 4.50005 17.1469 4.5803 17.2104 4.70734C17.2739 4.83438 17.2602 4.98641 17.175 5.10005L15.375 7.50005H16.875C17.0821 7.50005 17.25 7.66794 17.25 7.87505C17.25 8.08215 17.0821 8.25005 16.875 8.25005H14.625C14.483 8.25005 14.3531 8.1698 14.2896 8.04275C14.2261 7.91571 14.2398 7.76368 14.325 7.65005L16.125 5.25005H14.625C14.4179 5.25005 14.25 5.08215 14.25 4.87505Z" fill="#00A6ED"/>
<path d="M10.9936 6.0193C10.7971 5.95381 10.5847 6.05999 10.5193 6.25647C10.4538 6.45295 10.5599 6.66532 10.7564 6.73081L12.2107 7.21559L10.314 8.29947C10.1855 8.37284 10.1123 8.51483 10.1268 8.66201C10.1414 8.80918 10.2411 8.93404 10.3814 8.98081L12.6314 9.73081C12.8279 9.7963 13.0403 9.69012 13.1058 9.49364C13.1713 9.29716 13.0651 9.08479 12.8686 9.0193L11.4143 8.53453L13.3111 7.45065C13.4395 7.37727 13.5128 7.23528 13.4982 7.0881C13.4836 6.94093 13.3839 6.81607 13.2436 6.7693L10.9936 6.0193Z" fill="#00A6ED"/>
</svg>
