<svg width="24" height="24" viewBox="0 0 24 24" fill="none" xmlns="http://www.w3.org/2000/svg">
<path d="M19.9321 13.0412C19.7433 14.4811 19.166 15.8425 18.2622 16.9793C17.3585 18.1162 16.1623 18.9855 14.802 19.4942C13.4418 20.0029 11.9687 20.1317 10.5407 19.8667C9.11282 19.6018 7.78395 18.9532 6.69664 17.9905C5.60933 17.0277 4.8046 15.7872 4.36876 14.4018C3.93292 13.0165 3.8824 11.5386 4.22264 10.1268C4.56287 8.71488 5.28102 7.42227 6.30006 6.38752C7.3191 5.35278 8.60059 4.61495 10.0071 4.25317C13.9061 3.25317 17.9421 5.26017 19.4321 9.00017" stroke="" stroke-linecap="round" stroke-linejoin="round"/>
<path d="M20 4V9H15" stroke="" stroke-linecap="round" stroke-linejoin="round"/>
</svg>
