<svg width="24" height="24" viewBox="0 0 24 24" fill="none" xmlns="http://www.w3.org/2000/svg">
<path d="M6.9801 3.07401C7.86517 2.92321 8.77279 2.97296 9.63607 3.21958C10.4993 3.46621 11.2963 3.90343 11.9681 4.49901L12.0051 4.53201L12.0391 4.50201C12.6803 3.93931 13.4341 3.51981 14.2503 3.27149C15.0664 3.02318 15.9262 2.95177 16.7721 3.06201L17.0181 3.09801C18.0844 3.28212 19.0811 3.75117 19.9026 4.45548C20.7241 5.1598 21.3398 6.07316 21.6845 7.09885C22.0293 8.12454 22.0903 9.22437 21.861 10.2819C21.6317 11.3394 21.1207 12.3152 20.3821 13.106L20.2021 13.291L20.1541 13.332L12.7041 20.711C12.5322 20.8812 12.3044 20.9832 12.063 20.9983C11.8216 21.0134 11.5829 20.9405 11.3911 20.793L11.2971 20.711L3.8041 13.289C3.01032 12.5167 2.4458 11.5397 2.17306 10.4663C1.90032 9.39287 1.93 8.26491 2.25882 7.20733C2.58764 6.14974 3.20276 5.20381 4.03607 4.47428C4.86937 3.74476 5.88833 3.26011 6.9801 3.07401Z"/>
</svg>
