<svg width="20" height="20" viewBox="0 0 20 20" fill="none" xmlns="http://www.w3.org/2000/svg">
<g clip-path="url(#clip0_2495_127049)">
<path d="M14.1667 1.66699C14.8297 1.66699 15.4656 1.93038 15.9344 2.39923C16.4033 2.86807 16.6667 3.50395 16.6667 4.16699V17.5003C16.6667 17.6512 16.6258 17.7992 16.5482 17.9287C16.4707 18.0581 16.3595 18.164 16.2265 18.2352C16.0934 18.3064 15.9436 18.3401 15.7929 18.3328C15.6422 18.3255 15.4963 18.2774 15.3708 18.1937L13.4392 16.9062L12.2558 18.0895C12.1123 18.233 11.9214 18.3192 11.7189 18.3319C11.5164 18.3446 11.3162 18.283 11.1558 18.1587L11.0775 18.0895L10 17.0128L8.9225 18.0895C8.779 18.233 8.58809 18.3192 8.38557 18.3319C8.18304 18.3446 7.98284 18.283 7.8225 18.1587L7.74417 18.0895L6.56 16.9062L4.62917 18.1937L4.61333 18.2037L4.56833 18.2287L4.545 18.2428L4.5 18.262L4.45833 18.2812L4.4175 18.2937L4.3675 18.3095L4.32417 18.317L4.27667 18.3262L4.20667 18.3312L4.185 18.3337H4.16667L4.12583 18.3312H4.09333L4.0825 18.3287H4.06917L4.035 18.322L4.00333 18.3178L3.99083 18.3137L3.97583 18.312L3.9475 18.3028L3.91417 18.2945L3.89833 18.2887L3.88583 18.2853L3.86167 18.2745L3.82833 18.262L3.81083 18.2528L3.8 18.2487L3.77667 18.2353L3.74667 18.2203L3.735 18.212L3.72 18.2037L3.68833 18.1812L3.67 18.1695L3.66167 18.162L3.645 18.1503L3.6075 18.1162L3.5975 18.1095L3.5775 18.0895L3.54833 18.057L3.53167 18.0403L3.52583 18.0312L3.51667 18.0212L3.49 17.9837L3.47333 17.9628L3.46333 17.947L3.43833 17.902L3.42417 17.8787L3.405 17.8337L3.38583 17.792C3.3747 17.7626 3.36524 17.7325 3.3575 17.702L3.34917 17.6545L3.34083 17.6103L3.33333 17.5003V4.16699C3.33333 3.50395 3.59672 2.86807 4.06557 2.39923C4.53441 1.93038 5.17029 1.66699 5.83333 1.66699H14.1667ZM12.5 11.667H10.8333C10.6123 11.667 10.4004 11.7548 10.2441 11.9111C10.0878 12.0674 10 12.2793 10 12.5003C10 12.7213 10.0878 12.9333 10.2441 13.0896C10.4004 13.2459 10.6123 13.3337 10.8333 13.3337H12.5C12.721 13.3337 12.933 13.2459 13.0893 13.0896C13.2455 12.9333 13.3333 12.7213 13.3333 12.5003C13.3333 12.2793 13.2455 12.0674 13.0893 11.9111C12.933 11.7548 12.721 11.667 12.5 11.667ZM12.5 8.33366H7.5C7.27898 8.33366 7.06702 8.42146 6.91074 8.57774C6.75446 8.73402 6.66667 8.94598 6.66667 9.16699C6.66667 9.38801 6.75446 9.59997 6.91074 9.75625C7.06702 9.91253 7.27898 10.0003 7.5 10.0003H12.5C12.721 10.0003 12.933 9.91253 13.0893 9.75625C13.2455 9.59997 13.3333 9.38801 13.3333 9.16699C13.3333 8.94598 13.2455 8.73402 13.0893 8.57774C12.933 8.42146 12.721 8.33366 12.5 8.33366ZM12.5 5.00033H7.5C7.27898 5.00033 7.06702 5.08812 6.91074 5.2444C6.75446 5.40068 6.66667 5.61264 6.66667 5.83366C6.66667 6.05467 6.75446 6.26663 6.91074 6.42291C7.06702 6.57919 7.27898 6.66699 7.5 6.66699H12.5C12.721 6.66699 12.933 6.57919 13.0893 6.42291C13.2455 6.26663 13.3333 6.05467 13.3333 5.83366C13.3333 5.61264 13.2455 5.40068 13.0893 5.2444C12.933 5.08812 12.721 5.00033 12.5 5.00033Z" fill="#696B6F"/>
</g>
<defs>
<clipPath id="clip0_2495_127049">
<rect width="20" height="20" fill="white"/>
</clipPath>
</defs>
</svg>
