<svg width="20" height="20" viewBox="0 0 20 20" fill="none" xmlns="http://www.w3.org/2000/svg">
<g clip-path="url(#clip0_5071_103019)">
<path d="M12.5 6.66675C13.0175 7.05486 13.4375 7.55813 13.7268 8.13669C14.0161 8.71526 14.1667 9.35323 14.1667 10.0001C14.1667 10.6469 14.0161 11.2849 13.7268 11.8635C13.4375 12.442 13.0175 12.9453 12.5 13.3334" />
<path d="M14.75 4.16675C15.62 4.86979 16.3217 5.75852 16.8037 6.76785C17.2858 7.77718 17.536 8.88155 17.536 10.0001C17.536 11.1186 17.2858 12.223 16.8037 13.2323C16.3217 14.2416 15.62 15.1304 14.75 15.8334" />
<path d="M5 12.4999H3.33333C3.11232 12.4999 2.90036 12.4121 2.74408 12.2559C2.5878 12.0996 2.5 11.8876 2.5 11.6666V8.33327C2.5 8.11226 2.5878 7.9003 2.74408 7.74401C2.90036 7.58773 3.11232 7.49994 3.33333 7.49994H5L7.91667 3.74994C7.9895 3.60846 8.11054 3.49771 8.25791 3.43768C8.40528 3.37765 8.56925 3.37232 8.72021 3.42264C8.87117 3.47296 8.99915 3.57561 9.08103 3.71205C9.16291 3.84849 9.19328 4.00972 9.16667 4.1666V15.8333C9.19328 15.9902 9.16291 16.1514 9.08103 16.2878C8.99915 16.4243 8.87117 16.5269 8.72021 16.5772C8.56925 16.6276 8.40528 16.6222 8.25791 16.5622C8.11054 16.5022 7.9895 16.3914 7.91667 16.2499L5 12.4999Z" />
</g>
<defs>
<clipPath id="clip0_5071_103019">
<rect width="20" height="20" fill="white"/>
</clipPath>
</defs>
</svg>
