<svg width="24" height="24" viewBox="0 0 24 24" fill="none" xmlns="http://www.w3.org/2000/svg">
<path d="M4.8931 6.3071C4.5025 5.9165 4.5025 5.2837 4.8931 4.893C5.2837 4.5023 5.9165 4.5024 6.3072 4.893L7.0069 5.5927C7.3975 5.9833 7.3975 6.6161 7.0069 7.0068C6.8116 7.2021 6.5557 7.2998 6.2999 7.2998C6.0441 7.2998 5.7882 7.2021 5.5929 7.0068L4.8931 6.3071ZM12 5C12.5522 5 13 4.5522 13 4V3C13 2.4478 12.5522 2 12 2C11.4478 2 11 2.4478 11 3V4C11 4.5522 11.4478 5 12 5ZM17.7002 7.2998C17.9561 7.2998 18.2119 7.2021 18.4072 7.0073L19.1074 6.3076C19.498 5.917 19.498 5.2837 19.1074 4.893C18.7168 4.5023 18.084 4.5029 17.6933 4.8925L16.9931 5.5922C16.6025 5.9828 16.6025 6.6161 16.9931 7.0068C17.1884 7.2021 17.4444 7.2998 17.7002 7.2998ZM4 11H3C2.4478 11 2 11.4478 2 12C2 12.5527 2.4478 13 3 13H4C4.5522 13 5 12.5527 5 12C5 11.4478 4.5522 11 4 11ZM21 11H20C19.4473 11 19 11.4478 19 12C19 12.5527 19.4473 13 20 13H21C21.5527 13 22 12.5527 22 12C22 11.4478 21.5527 11 21 11ZM17 15V12C17 9.2432 14.7568 7 12 7C9.2432 7 7 9.2432 7 12V15C5.897 15 5 15.8975 5 17V19C5 20.1025 5.897 21 7 21H17C18.1025 21 19 20.1025 19 19V17C19 15.8975 18.1025 15 17 15Z"/>
</svg>
