<svg width="16" height="16" viewBox="0 0 16 16" fill="none" xmlns="http://www.w3.org/2000/svg">
<path d="M7.98438 1.5C9.35453 1.5 10.6218 1.76666 11.7861 2.29999C12.9505 2.83331 13.871 3.55853 14.5476 4.47563C15.2242 5.39269 15.5625 6.39303 15.5625 7.47662C15.5625 8.56019 15.2242 9.56194 14.5476 10.4819C13.871 11.4018 12.9519 12.1284 11.7903 12.6617C10.6288 13.195 9.36016 13.4617 7.98438 13.4617C7.55022 13.4617 7.10194 13.4307 6.63959 13.3686C4.63228 14.7626 3.56381 15.468 3.43412 15.4849C3.37209 15.5075 3.31288 15.5047 3.2565 15.4765C3.23394 15.4596 3.21703 15.437 3.20575 15.4087C3.19447 15.3805 3.18884 15.3552 3.18884 15.3326V15.2987C3.22269 15.0786 3.47922 14.1615 3.9585 12.5474C2.87027 12.0057 2.00617 11.2875 1.3662 10.393C0.726234 9.49847 0.40625 8.52634 0.40625 7.47662C0.40625 6.39303 0.744559 5.39269 1.42118 4.47563C2.0978 3.55853 3.01828 2.83331 4.18262 2.29999C5.34697 1.76666 6.61422 1.5 7.98438 1.5Z" fill="#1E1E1F"/>
</svg>
