<svg width="114" height="24" viewBox="0 0 114 24" fill="none" xmlns="http://www.w3.org/2000/svg">
<path d="M24.433 24C24.433 24 24.5408 20.5986 24.5408 16.2952C24.5408 15.6083 24.5822 13.3076 24.2672 10.7834C24.2672 10.7669 24.1677 10.0552 24.1677 10.0552C23.2392 4.3531 18.3316 0 12.4126 0C5.83042 0 0.5 5.37103 0.5 12C0.5 18.629 5.83042 24 12.4126 24C14.4519 24 16.3669 23.4869 18.0415 22.5766L12.9846 12.571L24.433 24Z" fill="#696B6F"/>
<path d="M50.3013 0.414062C45.1198 0.414062 40.2948 1.89544 36.2077 4.46096V0.414062H27.0883V23.5865H36.2077V19.5396C40.2948 22.1051 45.1198 23.5865 50.3013 23.5865V12.5879H38.6948L50.3013 9.27751V0.414062Z" fill="#696B6F"/>
<path d="M61.9854 0.414062H52.8457V23.5865H61.9854V0.414062Z" fill="#696B6F"/>
<path d="M87.7427 0.414062C82.5497 0.414062 77.714 1.91199 73.6177 4.47751V0.414062H64.478V23.5865H76.1104V19.5396H87.7427V12.5879H76.1104L87.7427 9.27751V0.414062Z" fill="#696B6F"/>
<path d="M104.859 0.414062L100.355 9.60855L101.535 0.414062H90.2352C90.2352 4.88303 91.5148 9.04579 93.7166 12.5796H90.2352V23.5865C94.4727 23.5865 98.4443 22.4527 101.868 20.4748C108.972 16.4527 113.558 8.54924 113.5 0.414062H104.859Z" fill="#696B6F"/>
</svg>
