<svg width="16" height="16" viewBox="0 0 16 16" fill="none" xmlns="http://www.w3.org/2000/svg">
<path d="M14.0976 5.4544C14.0048 5.5264 12.3664 6.4496 12.3664 8.5024C12.3664 10.8768 14.4512 11.7168 14.5136 11.7376C14.504 11.7888 14.1824 12.888 13.4144 14.008C12.7296 14.9936 12.0144 15.9776 10.9264 15.9776C9.8384 15.9776 9.5584 15.3456 8.3024 15.3456C7.0784 15.3456 6.6432 15.9984 5.648 15.9984C4.6528 15.9984 3.9584 15.0864 3.16 13.9664C2.2352 12.6512 1.488 10.608 1.488 8.6688C1.488 5.5584 3.5104 3.9088 5.5008 3.9088C6.5584 3.9088 7.44 4.6032 8.104 4.6032C8.736 4.6032 9.7216 3.8672 10.9248 3.8672C11.3808 3.8672 13.0192 3.9088 14.0976 5.4544ZM10.3536 2.5504C10.8512 1.96 11.2032 1.1408 11.2032 0.3216C11.2032 0.208 11.1936 0.0928 11.1728 0C10.3632 0.0304 9.4 0.5392 8.8192 1.2128C8.3632 1.7312 7.9376 2.5504 7.9376 3.3808C7.9376 3.5056 7.9584 3.6304 7.968 3.6704C8.0192 3.68 8.1024 3.6912 8.1856 3.6912C8.912 3.6912 9.8256 3.2048 10.3536 2.5504Z" fill="#1E1E1F"/>
</svg>
