<svg width="264" height="188" viewBox="0 0 264 188" fill='none' xmlns="http://www.w3.org/2000/svg">
<g clip-path="url(#clip0_1227_180543)">
<path d="M162 32.2628C162 32.2628 153.491 32.0037 142.745 32.0037C141.014 32.0037 135.286 31.9083 128.959 32.6855C128.918 32.6855 127.145 32.9446 127.145 32.9446C112.882 35.249 102 47.4937 102 62.2609C102 78.6781 115.432 92 132 92C148.568 92 162 78.6917 162 62.2609C162 57.1749 160.705 52.4025 158.441 48.2163L133.432 60.8292L162 32.2628Z" fill='currentColor'/>
</g>
<g clip-path="url(#clip1_1227_180543)">
<path d="M77.8177 156C77.8177 156 77.997 150.331 77.997 143.159C77.997 142.014 78.066 138.179 77.5419 133.972C77.5419 133.945 77.3764 132.759 77.3764 132.759C75.8316 123.255 67.6667 116 57.8192 116C46.8683 116 38 124.952 38 136C38 147.048 46.8683 156 57.8192 156C61.2121 156 64.398 155.145 67.184 153.628L58.7709 136.952L77.8177 156Z" fill='currentColor'/>
<path d="M120.94 116.689C112.301 116.689 104.255 119.158 97.4403 123.434V116.689H82.2344V155.31H97.4403V148.565C104.255 152.841 112.301 155.31 120.94 155.31V136.979H101.587L120.94 131.462V116.689Z" fill='currentColor'/>
<path d="M140.294 116.689H125.088V155.31H140.294V116.689Z" fill='currentColor'/>
<path d="M183.147 116.689C174.508 116.689 166.462 119.186 159.647 123.462V116.689H144.441V155.31H163.794V148.565H183.147V136.979H163.794L183.147 131.462V116.689Z" fill='currentColor'/>
<path d="M211.624 116.689L204.132 132.014L206.095 116.689H187.295C187.295 124.138 189.424 131.076 193.087 136.965H187.295V155.31C194.345 155.31 200.953 153.42 206.648 150.124C218.467 143.42 226.098 130.248 226.001 116.689H211.624Z" fill='currentColor'/>
</g>
<defs>
<clipPath id="clip0_1227_180543">
<rect width="60" height="60" fill="white" transform="translate(102 32)"/>
</clipPath>
<clipPath id="clip1_1227_180543">
<rect width="188" height="40" fill="white" transform="translate(38 116)"/>
</clipPath>
</defs>
</svg>
